G04 #@! TF.GenerationSoftware,KiCad,Pcbnew,(6.0.9)*
G04 #@! TF.CreationDate,2022-11-27T02:50:24+01:00*
G04 #@! TF.ProjectId,ll-irm-psu-board,6c6c2d69-726d-42d7-9073-752d626f6172,0.1*
G04 #@! TF.SameCoordinates,Original*
G04 #@! TF.FileFunction,Legend,Top*
G04 #@! TF.FilePolarity,Positive*
%FSLAX46Y46*%
G04 Gerber Fmt 4.6, Leading zero omitted, Abs format (unit mm)*
G04 Created by KiCad (PCBNEW (6.0.9)) date 2022-11-27 02:50:24*
%MOMM*%
%LPD*%
G01*
G04 APERTURE LIST*
G04 Aperture macros list*
%AMRoundRect*
0 Rectangle with rounded corners*
0 $1 Rounding radius*
0 $2 $3 $4 $5 $6 $7 $8 $9 X,Y pos of 4 corners*
0 Add a 4 corners polygon primitive as box body*
4,1,4,$2,$3,$4,$5,$6,$7,$8,$9,$2,$3,0*
0 Add four circle primitives for the rounded corners*
1,1,$1+$1,$2,$3*
1,1,$1+$1,$4,$5*
1,1,$1+$1,$6,$7*
1,1,$1+$1,$8,$9*
0 Add four rect primitives between the rounded corners*
20,1,$1+$1,$2,$3,$4,$5,0*
20,1,$1+$1,$4,$5,$6,$7,0*
20,1,$1+$1,$6,$7,$8,$9,0*
20,1,$1+$1,$8,$9,$2,$3,0*%
G04 Aperture macros list end*
%ADD10C,0.200000*%
%ADD11C,0.300000*%
%ADD12C,0.254000*%
%ADD13C,0.150000*%
%ADD14C,0.120000*%
%ADD15C,0.100000*%
%ADD16RoundRect,0.250000X-0.750000X0.600000X-0.750000X-0.600000X0.750000X-0.600000X0.750000X0.600000X0*%
%ADD17O,2.000000X1.700000*%
%ADD18R,1.800000X1.800000*%
%ADD19C,1.800000*%
%ADD20C,6.750000*%
%ADD21C,2.000000*%
%ADD22C,3.200000*%
%ADD23R,1.950000X1.950000*%
%ADD24C,1.950000*%
%ADD25C,1.600000*%
%ADD26O,1.600000X1.600000*%
G04 APERTURE END LIST*
D10*
X103479761Y-86365476D02*
X102884523Y-86365476D01*
X102884523Y-85115476D01*
X104491666Y-86365476D02*
X103896428Y-86365476D01*
X103896428Y-85115476D01*
X104908333Y-85889285D02*
X105860714Y-85889285D01*
X106455952Y-86365476D02*
X106455952Y-85115476D01*
X107765476Y-86365476D02*
X107348809Y-85770238D01*
X107051190Y-86365476D02*
X107051190Y-85115476D01*
X107527380Y-85115476D01*
X107646428Y-85175000D01*
X107705952Y-85234523D01*
X107765476Y-85353571D01*
X107765476Y-85532142D01*
X107705952Y-85651190D01*
X107646428Y-85710714D01*
X107527380Y-85770238D01*
X107051190Y-85770238D01*
X108301190Y-86365476D02*
X108301190Y-85115476D01*
X108717857Y-86008333D01*
X109134523Y-85115476D01*
X109134523Y-86365476D01*
X109729761Y-85889285D02*
X110682142Y-85889285D01*
X111515476Y-85115476D02*
X111634523Y-85115476D01*
X111753571Y-85175000D01*
X111813095Y-85234523D01*
X111872619Y-85353571D01*
X111932142Y-85591666D01*
X111932142Y-85889285D01*
X111872619Y-86127380D01*
X111813095Y-86246428D01*
X111753571Y-86305952D01*
X111634523Y-86365476D01*
X111515476Y-86365476D01*
X111396428Y-86305952D01*
X111336904Y-86246428D01*
X111277380Y-86127380D01*
X111217857Y-85889285D01*
X111217857Y-85591666D01*
X111277380Y-85353571D01*
X111336904Y-85234523D01*
X111396428Y-85175000D01*
X111515476Y-85115476D01*
X112348809Y-85115476D02*
X113122619Y-85115476D01*
X112705952Y-85591666D01*
X112884523Y-85591666D01*
X113003571Y-85651190D01*
X113063095Y-85710714D01*
X113122619Y-85829761D01*
X113122619Y-86127380D01*
X113063095Y-86246428D01*
X113003571Y-86305952D01*
X112884523Y-86365476D01*
X112527380Y-86365476D01*
X112408333Y-86305952D01*
X112348809Y-86246428D01*
X113658333Y-85889285D02*
X114610714Y-85889285D01*
X115205952Y-86365476D02*
X115205952Y-85115476D01*
X115682142Y-85115476D01*
X115801190Y-85175000D01*
X115860714Y-85234523D01*
X115920238Y-85353571D01*
X115920238Y-85532142D01*
X115860714Y-85651190D01*
X115801190Y-85710714D01*
X115682142Y-85770238D01*
X115205952Y-85770238D01*
X116396428Y-86305952D02*
X116575000Y-86365476D01*
X116872619Y-86365476D01*
X116991666Y-86305952D01*
X117051190Y-86246428D01*
X117110714Y-86127380D01*
X117110714Y-86008333D01*
X117051190Y-85889285D01*
X116991666Y-85829761D01*
X116872619Y-85770238D01*
X116634523Y-85710714D01*
X116515476Y-85651190D01*
X116455952Y-85591666D01*
X116396428Y-85472619D01*
X116396428Y-85353571D01*
X116455952Y-85234523D01*
X116515476Y-85175000D01*
X116634523Y-85115476D01*
X116932142Y-85115476D01*
X117110714Y-85175000D01*
X117646428Y-85115476D02*
X117646428Y-86127380D01*
X117705952Y-86246428D01*
X117765476Y-86305952D01*
X117884523Y-86365476D01*
X118122619Y-86365476D01*
X118241666Y-86305952D01*
X118301190Y-86246428D01*
X118360714Y-86127380D01*
X118360714Y-85115476D01*
X120622619Y-86365476D02*
X120205952Y-85770238D01*
X119908333Y-86365476D02*
X119908333Y-85115476D01*
X120384523Y-85115476D01*
X120503571Y-85175000D01*
X120563095Y-85234523D01*
X120622619Y-85353571D01*
X120622619Y-85532142D01*
X120563095Y-85651190D01*
X120503571Y-85710714D01*
X120384523Y-85770238D01*
X119908333Y-85770238D01*
X121634523Y-86305952D02*
X121515476Y-86365476D01*
X121277380Y-86365476D01*
X121158333Y-86305952D01*
X121098809Y-86186904D01*
X121098809Y-85710714D01*
X121158333Y-85591666D01*
X121277380Y-85532142D01*
X121515476Y-85532142D01*
X121634523Y-85591666D01*
X121694047Y-85710714D01*
X121694047Y-85829761D01*
X121098809Y-85948809D01*
X122110714Y-85532142D02*
X122408333Y-86365476D01*
X122705952Y-85532142D01*
X124372619Y-85115476D02*
X124491666Y-85115476D01*
X124610714Y-85175000D01*
X124670238Y-85234523D01*
X124729761Y-85353571D01*
X124789285Y-85591666D01*
X124789285Y-85889285D01*
X124729761Y-86127380D01*
X124670238Y-86246428D01*
X124610714Y-86305952D01*
X124491666Y-86365476D01*
X124372619Y-86365476D01*
X124253571Y-86305952D01*
X124194047Y-86246428D01*
X124134523Y-86127380D01*
X124075000Y-85889285D01*
X124075000Y-85591666D01*
X124134523Y-85353571D01*
X124194047Y-85234523D01*
X124253571Y-85175000D01*
X124372619Y-85115476D01*
X125325000Y-86246428D02*
X125384523Y-86305952D01*
X125325000Y-86365476D01*
X125265476Y-86305952D01*
X125325000Y-86246428D01*
X125325000Y-86365476D01*
X126575000Y-86365476D02*
X125860714Y-86365476D01*
X126217857Y-86365476D02*
X126217857Y-85115476D01*
X126098809Y-85294047D01*
X125979761Y-85413095D01*
X125860714Y-85472619D01*
D11*
X135407142Y-57521428D02*
X135407142Y-56378571D01*
X135357142Y-67921428D02*
X135357142Y-66778571D01*
X135928571Y-67350000D02*
X134785714Y-67350000D01*
D10*
X138765476Y-62488095D02*
X138765476Y-63083333D01*
X139360714Y-63142857D01*
X139301190Y-63083333D01*
X139241666Y-62964285D01*
X139241666Y-62666666D01*
X139301190Y-62547619D01*
X139360714Y-62488095D01*
X139479761Y-62428571D01*
X139777380Y-62428571D01*
X139896428Y-62488095D01*
X139955952Y-62547619D01*
X140015476Y-62666666D01*
X140015476Y-62964285D01*
X139955952Y-63083333D01*
X139896428Y-63142857D01*
X138765476Y-62071428D02*
X140015476Y-61654761D01*
X138765476Y-61238095D01*
D11*
X67771428Y-55171428D02*
X69271428Y-55171428D01*
X67771428Y-56028571D01*
X69271428Y-56028571D01*
X67871428Y-68614285D02*
X67871428Y-67900000D01*
X69371428Y-67900000D01*
D10*
X62215476Y-59405952D02*
X62275000Y-59465476D01*
X62334523Y-59584523D01*
X62334523Y-59882142D01*
X62275000Y-60001190D01*
X62215476Y-60060714D01*
X62096428Y-60120238D01*
X61977380Y-60120238D01*
X61798809Y-60060714D01*
X61084523Y-59346428D01*
X61084523Y-60120238D01*
X62334523Y-60536904D02*
X62334523Y-61310714D01*
X61858333Y-60894047D01*
X61858333Y-61072619D01*
X61798809Y-61191666D01*
X61739285Y-61251190D01*
X61620238Y-61310714D01*
X61322619Y-61310714D01*
X61203571Y-61251190D01*
X61144047Y-61191666D01*
X61084523Y-61072619D01*
X61084523Y-60715476D01*
X61144047Y-60596428D01*
X61203571Y-60536904D01*
X62334523Y-62084523D02*
X62334523Y-62203571D01*
X62275000Y-62322619D01*
X62215476Y-62382142D01*
X62096428Y-62441666D01*
X61858333Y-62501190D01*
X61560714Y-62501190D01*
X61322619Y-62441666D01*
X61203571Y-62382142D01*
X61144047Y-62322619D01*
X61084523Y-62203571D01*
X61084523Y-62084523D01*
X61144047Y-61965476D01*
X61203571Y-61905952D01*
X61322619Y-61846428D01*
X61560714Y-61786904D01*
X61858333Y-61786904D01*
X62096428Y-61846428D01*
X62215476Y-61905952D01*
X62275000Y-61965476D01*
X62334523Y-62084523D01*
X62334523Y-62858333D02*
X61084523Y-63275000D01*
X62334523Y-63691666D01*
X61441666Y-64048809D02*
X61441666Y-64644047D01*
X61084523Y-63929761D02*
X62334523Y-64346428D01*
X61084523Y-64763095D01*
X61203571Y-65894047D02*
X61144047Y-65834523D01*
X61084523Y-65655952D01*
X61084523Y-65536904D01*
X61144047Y-65358333D01*
X61263095Y-65239285D01*
X61382142Y-65179761D01*
X61620238Y-65120238D01*
X61798809Y-65120238D01*
X62036904Y-65179761D01*
X62155952Y-65239285D01*
X62275000Y-65358333D01*
X62334523Y-65536904D01*
X62334523Y-65655952D01*
X62275000Y-65834523D01*
X62215476Y-65894047D01*
D12*
X81902857Y-48269523D02*
X81902857Y-46999523D01*
X82386666Y-46999523D01*
X82507619Y-47060000D01*
X82568095Y-47120476D01*
X82628571Y-47241428D01*
X82628571Y-47422857D01*
X82568095Y-47543809D01*
X82507619Y-47604285D01*
X82386666Y-47664761D01*
X81902857Y-47664761D01*
X83112380Y-48209047D02*
X83293809Y-48269523D01*
X83596190Y-48269523D01*
X83717142Y-48209047D01*
X83777619Y-48148571D01*
X83838095Y-48027619D01*
X83838095Y-47906666D01*
X83777619Y-47785714D01*
X83717142Y-47725238D01*
X83596190Y-47664761D01*
X83354285Y-47604285D01*
X83233333Y-47543809D01*
X83172857Y-47483333D01*
X83112380Y-47362380D01*
X83112380Y-47241428D01*
X83172857Y-47120476D01*
X83233333Y-47060000D01*
X83354285Y-46999523D01*
X83656666Y-46999523D01*
X83838095Y-47060000D01*
X85047619Y-48269523D02*
X84321904Y-48269523D01*
X84684761Y-48269523D02*
X84684761Y-46999523D01*
X84563809Y-47180952D01*
X84442857Y-47301904D01*
X84321904Y-47362380D01*
D13*
X129502380Y-71816666D02*
X129026190Y-72150000D01*
X129502380Y-72388095D02*
X128502380Y-72388095D01*
X128502380Y-72007142D01*
X128550000Y-71911904D01*
X128597619Y-71864285D01*
X128692857Y-71816666D01*
X128835714Y-71816666D01*
X128930952Y-71864285D01*
X128978571Y-71911904D01*
X129026190Y-72007142D01*
X129026190Y-72388095D01*
X129502380Y-70864285D02*
X129502380Y-71435714D01*
X129502380Y-71150000D02*
X128502380Y-71150000D01*
X128645238Y-71245238D01*
X128740476Y-71340476D01*
X128788095Y-71435714D01*
D14*
X137075000Y-64150000D02*
X137075000Y-65950000D01*
X135575000Y-58350000D02*
X135575000Y-59100000D01*
X135575000Y-65200000D02*
X132625000Y-65200000D01*
X137075000Y-60150000D02*
X137825000Y-60150000D01*
X137825000Y-61650000D02*
X137075000Y-61650000D01*
X135575000Y-59100000D02*
X132625000Y-59100000D01*
X138125000Y-59300000D02*
X138125000Y-58050000D01*
X132625000Y-65200000D02*
X132625000Y-62150000D01*
X137075000Y-58350000D02*
X137075000Y-60150000D01*
X137835000Y-65960000D02*
X137835000Y-58340000D01*
X137835000Y-58340000D02*
X131865000Y-58340000D01*
X137825000Y-64150000D02*
X137075000Y-64150000D01*
X137825000Y-62650000D02*
X137825000Y-61650000D01*
X135575000Y-65950000D02*
X135575000Y-65200000D01*
X137825000Y-65950000D02*
X137825000Y-64150000D01*
X131865000Y-58340000D02*
X131865000Y-65960000D01*
X137825000Y-58350000D02*
X137075000Y-58350000D01*
X131865000Y-65960000D02*
X137835000Y-65960000D01*
X137075000Y-61650000D02*
X137075000Y-62650000D01*
X132625000Y-59100000D02*
X132625000Y-62150000D01*
X137825000Y-60150000D02*
X137825000Y-58350000D01*
X137075000Y-65950000D02*
X137825000Y-65950000D01*
X138125000Y-58050000D02*
X136875000Y-58050000D01*
X137075000Y-62650000D02*
X137825000Y-62650000D01*
X124805000Y-64715000D02*
X127895000Y-64715000D01*
X126350462Y-59165000D02*
G75*
G03*
X124805170Y-64715000I-462J-2990000D01*
G01*
X127894830Y-64715000D02*
G75*
G03*
X126349538Y-59165000I-1544830J2560000D01*
G01*
X128850000Y-62155000D02*
G75*
G03*
X128850000Y-62155000I-2500000J0D01*
G01*
D10*
X82110000Y-71050000D02*
G75*
G03*
X82110000Y-71250000I0J-100000D01*
G01*
X82110000Y-71250000D02*
G75*
G03*
X82110000Y-71050000I0J100000D01*
G01*
X82110000Y-71050000D02*
X82110000Y-71050000D01*
D15*
X82650000Y-74250000D02*
X119650000Y-74250000D01*
X119650000Y-74250000D02*
X119650000Y-50250000D01*
X119650000Y-50250000D02*
X82650000Y-50250000D01*
X82650000Y-50250000D02*
X82650000Y-74250000D01*
D10*
X82110000Y-71250000D02*
X82110000Y-71250000D01*
X74450000Y-67050000D02*
X74450000Y-57050000D01*
X63250000Y-67050000D02*
X74450000Y-67050000D01*
X74450000Y-57050000D02*
X68550000Y-57050000D01*
X63250000Y-59550000D02*
X63250000Y-67050000D01*
D14*
X127720000Y-75020000D02*
X127390000Y-75020000D01*
X125310000Y-68480000D02*
X124980000Y-68480000D01*
X124980000Y-75020000D02*
X125310000Y-75020000D01*
X124980000Y-68480000D02*
X124980000Y-75020000D01*
X127390000Y-68480000D02*
X127720000Y-68480000D01*
X127720000Y-68480000D02*
X127720000Y-75020000D01*
%LPC*%
D16*
X135375000Y-60900000D03*
D17*
X135375000Y-63400000D03*
D18*
X126350000Y-63425000D03*
D19*
X126350000Y-60885000D03*
D20*
X109370000Y-62250000D03*
X92930000Y-62250000D03*
D21*
X111310000Y-53370000D03*
X116390000Y-53370000D03*
X116390000Y-71150000D03*
X90990000Y-71150000D03*
X85910000Y-71150000D03*
D22*
X69250000Y-44760000D03*
D23*
X68550000Y-59550000D03*
D24*
X68550000Y-64550000D03*
D22*
X131740000Y-44760000D03*
X131740000Y-79550000D03*
X69250000Y-79550000D03*
D25*
X126350000Y-67940000D03*
D26*
X126350000Y-75560000D03*
M02*
