G04 #@! TF.GenerationSoftware,KiCad,Pcbnew,(6.0.9)*
G04 #@! TF.CreationDate,2022-11-27T02:50:24+01:00*
G04 #@! TF.ProjectId,ll-irm-psu-board,6c6c2d69-726d-42d7-9073-752d626f6172,0.1*
G04 #@! TF.SameCoordinates,Original*
G04 #@! TF.FileFunction,Copper,L2,Bot*
G04 #@! TF.FilePolarity,Positive*
%FSLAX46Y46*%
G04 Gerber Fmt 4.6, Leading zero omitted, Abs format (unit mm)*
G04 Created by KiCad (PCBNEW (6.0.9)) date 2022-11-27 02:50:24*
%MOMM*%
%LPD*%
G01*
G04 APERTURE LIST*
G04 Aperture macros list*
%AMRoundRect*
0 Rectangle with rounded corners*
0 $1 Rounding radius*
0 $2 $3 $4 $5 $6 $7 $8 $9 X,Y pos of 4 corners*
0 Add a 4 corners polygon primitive as box body*
4,1,4,$2,$3,$4,$5,$6,$7,$8,$9,$2,$3,0*
0 Add four circle primitives for the rounded corners*
1,1,$1+$1,$2,$3*
1,1,$1+$1,$4,$5*
1,1,$1+$1,$6,$7*
1,1,$1+$1,$8,$9*
0 Add four rect primitives between the rounded corners*
20,1,$1+$1,$2,$3,$4,$5,0*
20,1,$1+$1,$4,$5,$6,$7,0*
20,1,$1+$1,$6,$7,$8,$9,0*
20,1,$1+$1,$8,$9,$2,$3,0*%
G04 Aperture macros list end*
G04 #@! TA.AperFunction,ComponentPad*
%ADD10RoundRect,0.250000X-0.750000X0.600000X-0.750000X-0.600000X0.750000X-0.600000X0.750000X0.600000X0*%
G04 #@! TD*
G04 #@! TA.AperFunction,ComponentPad*
%ADD11O,2.000000X1.700000*%
G04 #@! TD*
G04 #@! TA.AperFunction,ComponentPad*
%ADD12R,1.800000X1.800000*%
G04 #@! TD*
G04 #@! TA.AperFunction,ComponentPad*
%ADD13C,1.800000*%
G04 #@! TD*
G04 #@! TA.AperFunction,ComponentPad*
%ADD14C,6.750000*%
G04 #@! TD*
G04 #@! TA.AperFunction,ComponentPad*
%ADD15C,2.000000*%
G04 #@! TD*
G04 #@! TA.AperFunction,ComponentPad*
%ADD16R,1.950000X1.950000*%
G04 #@! TD*
G04 #@! TA.AperFunction,ComponentPad*
%ADD17C,1.950000*%
G04 #@! TD*
G04 #@! TA.AperFunction,ComponentPad*
%ADD18C,1.600000*%
G04 #@! TD*
G04 #@! TA.AperFunction,ComponentPad*
%ADD19O,1.600000X1.600000*%
G04 #@! TD*
G04 APERTURE END LIST*
D10*
X135375000Y-60900000D03*
D11*
X135375000Y-63400000D03*
D12*
X126350000Y-63425000D03*
D13*
X126350000Y-60885000D03*
D14*
X109370000Y-62250000D03*
X92930000Y-62250000D03*
D15*
X111310000Y-53370000D03*
X116390000Y-53370000D03*
X116390000Y-71150000D03*
X90990000Y-71150000D03*
X85910000Y-71150000D03*
D16*
X68550000Y-59550000D03*
D17*
X68550000Y-64550000D03*
D18*
X126350000Y-67940000D03*
D19*
X126350000Y-75560000D03*
G04 #@! TA.AperFunction,Conductor*
G36*
X110524682Y-51870002D02*
G01*
X110571175Y-51923658D01*
X110581279Y-51993932D01*
X110551785Y-52058512D01*
X110522396Y-52083432D01*
X110424807Y-52143235D01*
X110424797Y-52143242D01*
X110420584Y-52145824D01*
X110240031Y-52300031D01*
X110085824Y-52480584D01*
X110083245Y-52484792D01*
X110083241Y-52484798D01*
X109964346Y-52678817D01*
X109961760Y-52683037D01*
X109959867Y-52687607D01*
X109959865Y-52687611D01*
X109872789Y-52897833D01*
X109870895Y-52902406D01*
X109815465Y-53133289D01*
X109796835Y-53370000D01*
X109815465Y-53606711D01*
X109870895Y-53837594D01*
X109872788Y-53842165D01*
X109872789Y-53842167D01*
X109959772Y-54052163D01*
X109961760Y-54056963D01*
X109964346Y-54061183D01*
X110083241Y-54255202D01*
X110083245Y-54255208D01*
X110085824Y-54259416D01*
X110240031Y-54439969D01*
X110420584Y-54594176D01*
X110424792Y-54596755D01*
X110424798Y-54596759D01*
X110618084Y-54715205D01*
X110623037Y-54718240D01*
X110627607Y-54720133D01*
X110627611Y-54720135D01*
X110837833Y-54807211D01*
X110842406Y-54809105D01*
X110922609Y-54828360D01*
X111068476Y-54863380D01*
X111068482Y-54863381D01*
X111073289Y-54864535D01*
X111310000Y-54883165D01*
X111546711Y-54864535D01*
X111551518Y-54863381D01*
X111551524Y-54863380D01*
X111697391Y-54828360D01*
X111777594Y-54809105D01*
X111782167Y-54807211D01*
X111992389Y-54720135D01*
X111992393Y-54720133D01*
X111996963Y-54718240D01*
X112001916Y-54715205D01*
X112185556Y-54602670D01*
X115522160Y-54602670D01*
X115527887Y-54610320D01*
X115699042Y-54715205D01*
X115707837Y-54719687D01*
X115917988Y-54806734D01*
X115927373Y-54809783D01*
X116148554Y-54862885D01*
X116158301Y-54864428D01*
X116385070Y-54882275D01*
X116394930Y-54882275D01*
X116621699Y-54864428D01*
X116631446Y-54862885D01*
X116852627Y-54809783D01*
X116862012Y-54806734D01*
X117072163Y-54719687D01*
X117080958Y-54715205D01*
X117248445Y-54612568D01*
X117257907Y-54602110D01*
X117254124Y-54593334D01*
X116402812Y-53742022D01*
X116388868Y-53734408D01*
X116387035Y-53734539D01*
X116380420Y-53738790D01*
X115528920Y-54590290D01*
X115522160Y-54602670D01*
X112185556Y-54602670D01*
X112195202Y-54596759D01*
X112195208Y-54596755D01*
X112199416Y-54594176D01*
X112379969Y-54439969D01*
X112534176Y-54259416D01*
X112536755Y-54255208D01*
X112536759Y-54255202D01*
X112655654Y-54061183D01*
X112658240Y-54056963D01*
X112660229Y-54052163D01*
X112747211Y-53842167D01*
X112747212Y-53842165D01*
X112749105Y-53837594D01*
X112804535Y-53606711D01*
X112822777Y-53374930D01*
X114877725Y-53374930D01*
X114895572Y-53601699D01*
X114897115Y-53611446D01*
X114950217Y-53832627D01*
X114953266Y-53842012D01*
X115040313Y-54052163D01*
X115044795Y-54060958D01*
X115147432Y-54228445D01*
X115157890Y-54237907D01*
X115166666Y-54234124D01*
X116017978Y-53382812D01*
X116024356Y-53371132D01*
X116754408Y-53371132D01*
X116754539Y-53372965D01*
X116758790Y-53379580D01*
X117610290Y-54231080D01*
X117622670Y-54237840D01*
X117630320Y-54232113D01*
X117735205Y-54060958D01*
X117739687Y-54052163D01*
X117826734Y-53842012D01*
X117829783Y-53832627D01*
X117882885Y-53611446D01*
X117884428Y-53601699D01*
X117902275Y-53374930D01*
X117902275Y-53365070D01*
X117884428Y-53138301D01*
X117882885Y-53128554D01*
X117829783Y-52907373D01*
X117826734Y-52897988D01*
X117739687Y-52687837D01*
X117735205Y-52679042D01*
X117632568Y-52511555D01*
X117622110Y-52502093D01*
X117613334Y-52505876D01*
X116762022Y-53357188D01*
X116754408Y-53371132D01*
X116024356Y-53371132D01*
X116025592Y-53368868D01*
X116025461Y-53367035D01*
X116021210Y-53360420D01*
X115169710Y-52508920D01*
X115157330Y-52502160D01*
X115149680Y-52507887D01*
X115044795Y-52679042D01*
X115040313Y-52687837D01*
X114953266Y-52897988D01*
X114950217Y-52907373D01*
X114897115Y-53128554D01*
X114895572Y-53138301D01*
X114877725Y-53365070D01*
X114877725Y-53374930D01*
X112822777Y-53374930D01*
X112823165Y-53370000D01*
X112804535Y-53133289D01*
X112749105Y-52902406D01*
X112747211Y-52897833D01*
X112660135Y-52687611D01*
X112660133Y-52687607D01*
X112658240Y-52683037D01*
X112655654Y-52678817D01*
X112536759Y-52484798D01*
X112536755Y-52484792D01*
X112534176Y-52480584D01*
X112379969Y-52300031D01*
X112199416Y-52145824D01*
X112195203Y-52143242D01*
X112195193Y-52143235D01*
X112097604Y-52083432D01*
X112049973Y-52030785D01*
X112038366Y-51960743D01*
X112066469Y-51895546D01*
X112125360Y-51855892D01*
X112163439Y-51850000D01*
X115537521Y-51850000D01*
X115605642Y-51870002D01*
X115652135Y-51923658D01*
X115662239Y-51993932D01*
X115632745Y-52058512D01*
X115603356Y-52083432D01*
X115531555Y-52127432D01*
X115522093Y-52137890D01*
X115525876Y-52146666D01*
X116377188Y-52997978D01*
X116391132Y-53005592D01*
X116392965Y-53005461D01*
X116399580Y-53001210D01*
X117251080Y-52149710D01*
X117257840Y-52137330D01*
X117252113Y-52129680D01*
X117176644Y-52083432D01*
X117129013Y-52030785D01*
X117117406Y-51960743D01*
X117145509Y-51895546D01*
X117204400Y-51855892D01*
X117242479Y-51850000D01*
X125174000Y-51850000D01*
X125242121Y-51870002D01*
X125288614Y-51923658D01*
X125300000Y-51976000D01*
X125300000Y-54950000D01*
X138374000Y-54950000D01*
X138442121Y-54970002D01*
X138488614Y-55023658D01*
X138500000Y-55076000D01*
X138500000Y-66824000D01*
X138479998Y-66892121D01*
X138426342Y-66938614D01*
X138374000Y-66950000D01*
X128700000Y-66950000D01*
X128700000Y-76824000D01*
X128679998Y-76892121D01*
X128626342Y-76938614D01*
X128574000Y-76950000D01*
X127032476Y-76950000D01*
X126964355Y-76929998D01*
X126917862Y-76876342D01*
X126907758Y-76806068D01*
X126937252Y-76741488D01*
X126979227Y-76709805D01*
X127001507Y-76699416D01*
X127011007Y-76693931D01*
X127189467Y-76568972D01*
X127197875Y-76561916D01*
X127351916Y-76407875D01*
X127358972Y-76399467D01*
X127483931Y-76221007D01*
X127489414Y-76211511D01*
X127581490Y-76014053D01*
X127585236Y-76003761D01*
X127631394Y-75831497D01*
X127631058Y-75817401D01*
X127623116Y-75814000D01*
X125082033Y-75814000D01*
X125068502Y-75817973D01*
X125067273Y-75826522D01*
X125114764Y-76003761D01*
X125118510Y-76014053D01*
X125210586Y-76211511D01*
X125216069Y-76221007D01*
X125341028Y-76399467D01*
X125348084Y-76407875D01*
X125502125Y-76561916D01*
X125510533Y-76568972D01*
X125688993Y-76693931D01*
X125698493Y-76699416D01*
X125720773Y-76709805D01*
X125774059Y-76756722D01*
X125793520Y-76824999D01*
X125772978Y-76892959D01*
X125718956Y-76939025D01*
X125667524Y-76950000D01*
X124426000Y-76950000D01*
X124357879Y-76929998D01*
X124311386Y-76876342D01*
X124300000Y-76824000D01*
X124300000Y-75288503D01*
X125068606Y-75288503D01*
X125068942Y-75302599D01*
X125076884Y-75306000D01*
X126077885Y-75306000D01*
X126093124Y-75301525D01*
X126094329Y-75300135D01*
X126096000Y-75292452D01*
X126096000Y-75287885D01*
X126604000Y-75287885D01*
X126608475Y-75303124D01*
X126609865Y-75304329D01*
X126617548Y-75306000D01*
X127617967Y-75306000D01*
X127631498Y-75302027D01*
X127632727Y-75293478D01*
X127585236Y-75116239D01*
X127581490Y-75105947D01*
X127489414Y-74908489D01*
X127483931Y-74898993D01*
X127358972Y-74720533D01*
X127351916Y-74712125D01*
X127197875Y-74558084D01*
X127189467Y-74551028D01*
X127011007Y-74426069D01*
X127001511Y-74420586D01*
X126804053Y-74328510D01*
X126793761Y-74324764D01*
X126621497Y-74278606D01*
X126607401Y-74278942D01*
X126604000Y-74286884D01*
X126604000Y-75287885D01*
X126096000Y-75287885D01*
X126096000Y-74292033D01*
X126092027Y-74278502D01*
X126083478Y-74277273D01*
X125906239Y-74324764D01*
X125895947Y-74328510D01*
X125698489Y-74420586D01*
X125688993Y-74426069D01*
X125510533Y-74551028D01*
X125502125Y-74558084D01*
X125348084Y-74712125D01*
X125341028Y-74720533D01*
X125216069Y-74898993D01*
X125210586Y-74908489D01*
X125118510Y-75105947D01*
X125114764Y-75116239D01*
X125068606Y-75288503D01*
X124300000Y-75288503D01*
X124300000Y-67940000D01*
X125036502Y-67940000D01*
X125056457Y-68168087D01*
X125115716Y-68389243D01*
X125118039Y-68394224D01*
X125118039Y-68394225D01*
X125210151Y-68591762D01*
X125210154Y-68591767D01*
X125212477Y-68596749D01*
X125343802Y-68784300D01*
X125505700Y-68946198D01*
X125510208Y-68949355D01*
X125510211Y-68949357D01*
X125588389Y-69004098D01*
X125693251Y-69077523D01*
X125698233Y-69079846D01*
X125698238Y-69079849D01*
X125895775Y-69171961D01*
X125900757Y-69174284D01*
X125906065Y-69175706D01*
X125906067Y-69175707D01*
X126116598Y-69232119D01*
X126116600Y-69232119D01*
X126121913Y-69233543D01*
X126350000Y-69253498D01*
X126578087Y-69233543D01*
X126583400Y-69232119D01*
X126583402Y-69232119D01*
X126793933Y-69175707D01*
X126793935Y-69175706D01*
X126799243Y-69174284D01*
X126804225Y-69171961D01*
X127001762Y-69079849D01*
X127001767Y-69079846D01*
X127006749Y-69077523D01*
X127111611Y-69004098D01*
X127189789Y-68949357D01*
X127189792Y-68949355D01*
X127194300Y-68946198D01*
X127356198Y-68784300D01*
X127487523Y-68596749D01*
X127489846Y-68591767D01*
X127489849Y-68591762D01*
X127581961Y-68394225D01*
X127581961Y-68394224D01*
X127584284Y-68389243D01*
X127643543Y-68168087D01*
X127663498Y-67940000D01*
X127643543Y-67711913D01*
X127584284Y-67490757D01*
X127581961Y-67485775D01*
X127489849Y-67288238D01*
X127489846Y-67288233D01*
X127487523Y-67283251D01*
X127356198Y-67095700D01*
X127194300Y-66933802D01*
X127189792Y-66930645D01*
X127189789Y-66930643D01*
X127111611Y-66875902D01*
X127006749Y-66802477D01*
X127001767Y-66800154D01*
X127001762Y-66800151D01*
X126804225Y-66708039D01*
X126804224Y-66708039D01*
X126799243Y-66705716D01*
X126793935Y-66704294D01*
X126793933Y-66704293D01*
X126583402Y-66647881D01*
X126583400Y-66647881D01*
X126578087Y-66646457D01*
X126350000Y-66626502D01*
X126121913Y-66646457D01*
X126116600Y-66647881D01*
X126116598Y-66647881D01*
X125906067Y-66704293D01*
X125906065Y-66704294D01*
X125900757Y-66705716D01*
X125895776Y-66708039D01*
X125895775Y-66708039D01*
X125698238Y-66800151D01*
X125698233Y-66800154D01*
X125693251Y-66802477D01*
X125588389Y-66875902D01*
X125510211Y-66930643D01*
X125510208Y-66930645D01*
X125505700Y-66933802D01*
X125343802Y-67095700D01*
X125212477Y-67283251D01*
X125210154Y-67288233D01*
X125210151Y-67288238D01*
X125118039Y-67485775D01*
X125115716Y-67490757D01*
X125056457Y-67711913D01*
X125036502Y-67940000D01*
X124300000Y-67940000D01*
X124300000Y-65950000D01*
X117526000Y-65950000D01*
X117457879Y-65929998D01*
X117411386Y-65876342D01*
X117400000Y-65824000D01*
X117400000Y-60850469D01*
X124937095Y-60850469D01*
X124937392Y-60855622D01*
X124937392Y-60855625D01*
X124943067Y-60954041D01*
X124950427Y-61081697D01*
X124951564Y-61086743D01*
X124951565Y-61086749D01*
X124983741Y-61229523D01*
X125001346Y-61307642D01*
X125003288Y-61312424D01*
X125003289Y-61312428D01*
X125061108Y-61454819D01*
X125088484Y-61522237D01*
X125209501Y-61719719D01*
X125212882Y-61723622D01*
X125321304Y-61848788D01*
X125350786Y-61913373D01*
X125340671Y-61983646D01*
X125294170Y-62037294D01*
X125270296Y-62049267D01*
X125252123Y-62056080D01*
X125203295Y-62074385D01*
X125086739Y-62161739D01*
X124999385Y-62278295D01*
X124948255Y-62414684D01*
X124941500Y-62476866D01*
X124941500Y-64373134D01*
X124948255Y-64435316D01*
X124999385Y-64571705D01*
X125086739Y-64688261D01*
X125203295Y-64775615D01*
X125339684Y-64826745D01*
X125401866Y-64833500D01*
X127298134Y-64833500D01*
X127360316Y-64826745D01*
X127496705Y-64775615D01*
X127613261Y-64688261D01*
X127700615Y-64571705D01*
X127751745Y-64435316D01*
X127758500Y-64373134D01*
X127758500Y-63335774D01*
X133863102Y-63335774D01*
X133871751Y-63566158D01*
X133919093Y-63791791D01*
X134003776Y-64006221D01*
X134123377Y-64203317D01*
X134126874Y-64207347D01*
X134213438Y-64307103D01*
X134274477Y-64377445D01*
X134278608Y-64380832D01*
X134448627Y-64520240D01*
X134448633Y-64520244D01*
X134452755Y-64523624D01*
X134457391Y-64526263D01*
X134457394Y-64526265D01*
X134537221Y-64571705D01*
X134653114Y-64637675D01*
X134869825Y-64716337D01*
X134875074Y-64717286D01*
X134875077Y-64717287D01*
X135092608Y-64756623D01*
X135092615Y-64756624D01*
X135096692Y-64757361D01*
X135114414Y-64758197D01*
X135119356Y-64758430D01*
X135119363Y-64758430D01*
X135120844Y-64758500D01*
X135582890Y-64758500D01*
X135649809Y-64752822D01*
X135749409Y-64744371D01*
X135749413Y-64744370D01*
X135754720Y-64743920D01*
X135759875Y-64742582D01*
X135759881Y-64742581D01*
X135972703Y-64687343D01*
X135972707Y-64687342D01*
X135977872Y-64686001D01*
X135982738Y-64683809D01*
X135982741Y-64683808D01*
X136183202Y-64593507D01*
X136188075Y-64591312D01*
X136379319Y-64462559D01*
X136384041Y-64458055D01*
X136542278Y-64307103D01*
X136546135Y-64303424D01*
X136683754Y-64118458D01*
X136788240Y-63912949D01*
X136824321Y-63796752D01*
X136855024Y-63697871D01*
X136856607Y-63692773D01*
X136857308Y-63687484D01*
X136886198Y-63469511D01*
X136886198Y-63469506D01*
X136886898Y-63464226D01*
X136885940Y-63438693D01*
X136878449Y-63239173D01*
X136878249Y-63233842D01*
X136830907Y-63008209D01*
X136746224Y-62793779D01*
X136626623Y-62596683D01*
X136539755Y-62496576D01*
X136479023Y-62426588D01*
X136479021Y-62426586D01*
X136475523Y-62422555D01*
X136439471Y-62392994D01*
X136399476Y-62334334D01*
X136397545Y-62263364D01*
X136434290Y-62202616D01*
X136453059Y-62188416D01*
X136592807Y-62101937D01*
X136604208Y-62092901D01*
X136718739Y-61978171D01*
X136727751Y-61966760D01*
X136812816Y-61828757D01*
X136818963Y-61815576D01*
X136870138Y-61661290D01*
X136873005Y-61647914D01*
X136882672Y-61553562D01*
X136883000Y-61547146D01*
X136883000Y-61172115D01*
X136878525Y-61156876D01*
X136877135Y-61155671D01*
X136869452Y-61154000D01*
X133885116Y-61154000D01*
X133869877Y-61158475D01*
X133868672Y-61159865D01*
X133867001Y-61167548D01*
X133867001Y-61547095D01*
X133867338Y-61553614D01*
X133877257Y-61649206D01*
X133880149Y-61662600D01*
X133931588Y-61816784D01*
X133937761Y-61829962D01*
X134023063Y-61967807D01*
X134032099Y-61979208D01*
X134146829Y-62093739D01*
X134158243Y-62102753D01*
X134297713Y-62188723D01*
X134345207Y-62241495D01*
X134356631Y-62311566D01*
X134328357Y-62376690D01*
X134318574Y-62387149D01*
X134203865Y-62496576D01*
X134066246Y-62681542D01*
X133961760Y-62887051D01*
X133960178Y-62892145D01*
X133960177Y-62892148D01*
X133920916Y-63018589D01*
X133893393Y-63107227D01*
X133892692Y-63112516D01*
X133877304Y-63228623D01*
X133863102Y-63335774D01*
X127758500Y-63335774D01*
X127758500Y-62476866D01*
X127751745Y-62414684D01*
X127700615Y-62278295D01*
X127613261Y-62161739D01*
X127496705Y-62074385D01*
X127488296Y-62071233D01*
X127488295Y-62071232D01*
X127429804Y-62049305D01*
X127373039Y-62006664D01*
X127348339Y-61940103D01*
X127363546Y-61870754D01*
X127385093Y-61842073D01*
X127422636Y-61804660D01*
X127422640Y-61804655D01*
X127426303Y-61801005D01*
X127561458Y-61612917D01*
X127608641Y-61517450D01*
X127661784Y-61409922D01*
X127661785Y-61409920D01*
X127664078Y-61405280D01*
X127731408Y-61183671D01*
X127761640Y-60954041D01*
X127763327Y-60885000D01*
X127757032Y-60808434D01*
X127744773Y-60659318D01*
X127744772Y-60659312D01*
X127744349Y-60654167D01*
X127737747Y-60627885D01*
X133867000Y-60627885D01*
X133871475Y-60643124D01*
X133872865Y-60644329D01*
X133880548Y-60646000D01*
X135102885Y-60646000D01*
X135118124Y-60641525D01*
X135119329Y-60640135D01*
X135121000Y-60632452D01*
X135121000Y-60627885D01*
X135629000Y-60627885D01*
X135633475Y-60643124D01*
X135634865Y-60644329D01*
X135642548Y-60646000D01*
X136864884Y-60646000D01*
X136880123Y-60641525D01*
X136881328Y-60640135D01*
X136882999Y-60632452D01*
X136882999Y-60252905D01*
X136882662Y-60246386D01*
X136872743Y-60150794D01*
X136869851Y-60137400D01*
X136818412Y-59983216D01*
X136812239Y-59970038D01*
X136726937Y-59832193D01*
X136717901Y-59820792D01*
X136603171Y-59706261D01*
X136591760Y-59697249D01*
X136453757Y-59612184D01*
X136440576Y-59606037D01*
X136286290Y-59554862D01*
X136272914Y-59551995D01*
X136178562Y-59542328D01*
X136172145Y-59542000D01*
X135647115Y-59542000D01*
X135631876Y-59546475D01*
X135630671Y-59547865D01*
X135629000Y-59555548D01*
X135629000Y-60627885D01*
X135121000Y-60627885D01*
X135121000Y-59560116D01*
X135116525Y-59544877D01*
X135115135Y-59543672D01*
X135107452Y-59542001D01*
X134577905Y-59542001D01*
X134571386Y-59542338D01*
X134475794Y-59552257D01*
X134462400Y-59555149D01*
X134308216Y-59606588D01*
X134295038Y-59612761D01*
X134157193Y-59698063D01*
X134145792Y-59707099D01*
X134031261Y-59821829D01*
X134022249Y-59833240D01*
X133937184Y-59971243D01*
X133931037Y-59984424D01*
X133879862Y-60138710D01*
X133876995Y-60152086D01*
X133867328Y-60246438D01*
X133867000Y-60252855D01*
X133867000Y-60627885D01*
X127737747Y-60627885D01*
X127687925Y-60429533D01*
X127685866Y-60424797D01*
X127597630Y-60221868D01*
X127597628Y-60221865D01*
X127595570Y-60217131D01*
X127469764Y-60022665D01*
X127434968Y-59984424D01*
X127420134Y-59968122D01*
X127313887Y-59851358D01*
X127309836Y-59848159D01*
X127309832Y-59848155D01*
X127136177Y-59711011D01*
X127136172Y-59711008D01*
X127132123Y-59707810D01*
X127127607Y-59705317D01*
X127127604Y-59705315D01*
X126933879Y-59598373D01*
X126933875Y-59598371D01*
X126929355Y-59595876D01*
X126924486Y-59594152D01*
X126924482Y-59594150D01*
X126715903Y-59520288D01*
X126715899Y-59520287D01*
X126711028Y-59518562D01*
X126705935Y-59517655D01*
X126705932Y-59517654D01*
X126488095Y-59478851D01*
X126488089Y-59478850D01*
X126483006Y-59477945D01*
X126410096Y-59477054D01*
X126256581Y-59475179D01*
X126256579Y-59475179D01*
X126251411Y-59475116D01*
X126022464Y-59510150D01*
X125802314Y-59582106D01*
X125797726Y-59584494D01*
X125797722Y-59584496D01*
X125601461Y-59686663D01*
X125596872Y-59689052D01*
X125592739Y-59692155D01*
X125592736Y-59692157D01*
X125415790Y-59825012D01*
X125411655Y-59828117D01*
X125408083Y-59831855D01*
X125262285Y-59984424D01*
X125251639Y-59995564D01*
X125248725Y-59999836D01*
X125248724Y-59999837D01*
X125233152Y-60022665D01*
X125121119Y-60186899D01*
X125023602Y-60396981D01*
X124961707Y-60620169D01*
X124937095Y-60850469D01*
X117400000Y-60850469D01*
X117400000Y-57950000D01*
X109426000Y-57950000D01*
X109357879Y-57929998D01*
X109311386Y-57876342D01*
X109300000Y-57824000D01*
X109300000Y-51976000D01*
X109320002Y-51907879D01*
X109373658Y-51861386D01*
X109426000Y-51850000D01*
X110456561Y-51850000D01*
X110524682Y-51870002D01*
G37*
G04 #@! TD.AperFunction*
M02*
